<svg width="340" height="250" viewBox="0 0 340 250" fill="none" xmlns="http://www.w3.org/2000/svg">
<g clip-path="url(#clip0_1_2)">
<g clip-path="url(#clip1_1_2)">
<path d="M204.461 221.238C199.996 225.718 194.69 229.273 188.848 231.699C183.006 234.125 176.743 235.374 170.417 235.374C164.092 235.374 157.828 234.125 151.987 231.699C146.145 229.273 140.839 225.718 136.374 221.238L31.0794 115.823C26.5988 111.358 23.0437 106.052 20.618 100.21C18.1922 94.3685 16.9435 88.1051 16.9435 81.7796C16.9435 75.454 18.1922 69.1907 20.618 63.3488C23.0437 57.5068 26.5988 52.2012 31.0794 47.7361L51.105 27.7105C55.5701 23.2299 60.8757 19.6748 66.7176 17.2491C72.5596 14.8233 78.8229 13.5746 85.1485 13.5746C91.474 13.5746 97.7374 14.8233 103.579 17.2491C109.421 19.6748 114.727 23.2299 119.192 27.7105L224.326 133.446C228.807 137.911 232.362 143.216 234.788 149.058C237.213 154.9 238.462 161.163 238.462 167.489C238.462 173.815 237.213 180.078 234.788 185.92C232.362 191.762 228.807 197.067 224.326 201.532L204.461 221.238Z" fill="#037B68"/>
<path d="M222.083 28.031L82.7454 167.489L126.802 211.305L136.734 221.238C141.199 225.718 146.505 229.273 152.347 231.699C158.189 234.125 164.452 235.374 170.778 235.374C177.103 235.374 183.367 234.125 189.209 231.699C195.051 229.273 200.356 225.718 204.821 221.238L309.915 115.823C314.396 111.358 317.951 106.052 320.377 100.21C322.803 94.3685 324.051 88.1051 324.051 81.7796C324.051 75.454 322.803 69.1907 320.377 63.3488C317.951 57.5068 314.396 52.2012 309.915 47.7361L289.89 27.7105C280.841 18.7893 268.627 13.8147 255.92 13.8747C243.214 13.9348 231.047 19.0246 222.083 28.031Z" fill="#6DB78C"/>
</g>
</g>
<defs>
<clipPath id="clip0_1_2">
<rect width="340" height="250" fill="white"/>
</clipPath>
<clipPath id="clip1_1_2">
<rect width="307.108" height="221.799" fill="white" transform="translate(16.9435 13.5746)"/>
</clipPath>
</defs>
</svg>
